<svg width="629" height="567" viewBox="0 0 629 567" fill="none" xmlns="http://www.w3.org/2000/svg">
<g clip-path="url(#clip0_63_302)">
<path d="M390.809 329.485H160.413C152.6 329.476 145.109 326.369 139.585 320.845C134.06 315.321 130.953 307.831 130.944 300.019V29.4661C130.953 21.6539 134.06 14.1642 139.585 8.64018C145.109 3.11612 152.6 0.00882465 160.413 0H374.758L420.278 36.2781V300.019C420.269 307.831 417.161 315.321 411.637 320.845C406.112 326.369 398.622 329.476 390.809 329.485Z" fill="#E6E6E6"/>
<path d="M160.413 8.48267C154.849 8.48894 149.515 10.7017 145.581 14.6355C141.646 18.5693 139.433 23.9029 139.427 29.4661V300.019C139.433 305.582 141.646 310.916 145.581 314.85C149.515 318.783 154.849 320.996 160.413 321.002H390.808C396.372 320.996 401.706 318.783 405.641 314.85C409.575 310.916 411.788 305.582 411.794 300.019V40.3646L371.791 8.48267H160.413Z" fill="white"/>
<path d="M345.997 87.1522H241.101C240.456 87.1522 239.818 87.0252 239.223 86.7786C238.627 86.532 238.086 86.1706 237.631 85.715C237.175 85.2593 236.813 84.7184 236.567 84.1231C236.32 83.5277 236.193 82.8896 236.193 82.2453C236.193 81.6009 236.32 80.9628 236.567 80.3675C236.813 79.7721 237.175 79.2312 237.631 78.7756C238.086 78.3199 238.627 77.9585 239.223 77.7119C239.818 77.4653 240.456 77.3384 241.101 77.3384H345.997C346.641 77.3384 347.279 77.4653 347.875 77.7119C348.47 77.9585 349.011 78.3199 349.467 78.7756C349.922 79.2312 350.284 79.7721 350.53 80.3675C350.777 80.9628 350.904 81.6009 350.904 82.2453C350.904 82.8896 350.777 83.5277 350.53 84.1231C350.284 84.7184 349.922 85.2593 349.467 85.715C349.011 86.1706 348.47 86.532 347.875 86.7786C347.279 87.0252 346.641 87.1522 345.997 87.1522Z" fill="#CCCCCC"/>
<path d="M366.24 103.713H241.101C239.799 103.713 238.551 103.196 237.631 102.276C236.71 101.356 236.193 100.107 236.193 98.806C236.193 97.5047 236.71 96.2566 237.631 95.3363C238.551 94.4161 239.799 93.8991 241.101 93.8991H366.24C367.541 93.8991 368.789 94.4161 369.71 95.3363C370.63 96.2566 371.147 97.5047 371.147 98.806C371.147 100.107 370.63 101.356 369.71 102.276C368.789 103.196 367.541 103.713 366.24 103.713Z" fill="#CCCCCC"/>
<path d="M345.997 161.369H241.101C239.799 161.369 238.551 160.852 237.631 159.932C236.71 159.012 236.193 157.764 236.193 156.462C236.193 155.161 236.71 153.913 237.631 152.992C238.551 152.072 239.799 151.555 241.101 151.555H345.997C347.298 151.555 348.546 152.072 349.467 152.992C350.387 153.913 350.904 155.161 350.904 156.462C350.904 157.764 350.387 159.012 349.467 159.932C348.546 160.852 347.298 161.369 345.997 161.369Z" fill="#CCCCCC"/>
<path d="M366.24 177.93H241.101C239.799 177.93 238.551 177.413 237.631 176.493C236.71 175.572 236.193 174.324 236.193 173.023C236.193 171.722 236.71 170.473 237.631 169.553C238.551 168.633 239.799 168.116 241.101 168.116H366.24C367.541 168.116 368.789 168.633 369.71 169.553C370.63 170.473 371.147 171.722 371.147 173.023C371.147 174.324 370.63 175.572 369.71 176.493C368.789 177.413 367.541 177.93 366.24 177.93Z" fill="#CCCCCC"/>
<path d="M345.997 235.586H241.101C239.799 235.586 238.551 235.069 237.631 234.149C236.71 233.228 236.193 231.98 236.193 230.679C236.193 229.378 236.71 228.13 237.631 227.209C238.551 226.289 239.799 225.772 241.101 225.772H345.997C347.298 225.772 348.546 226.289 349.467 227.209C350.387 228.13 350.904 229.378 350.904 230.679C350.904 231.98 350.387 233.228 349.467 234.149C348.546 235.069 347.298 235.586 345.997 235.586Z" fill="#CCCCCC"/>
<path d="M366.24 252.147H241.101C239.799 252.147 238.551 251.63 237.631 250.709C236.71 249.789 236.193 248.541 236.193 247.24C236.193 245.938 236.71 244.69 237.631 243.77C238.551 242.85 239.799 242.333 241.101 242.333H366.24C367.541 242.333 368.789 242.85 369.71 243.77C370.63 244.69 371.147 245.938 371.147 247.24C371.147 248.541 370.63 249.789 369.71 250.709C368.789 251.63 367.541 252.147 366.24 252.147Z" fill="#CCCCCC"/>
<path d="M197.419 107.869C206.999 107.869 214.764 100.104 214.764 90.5257C214.764 80.9473 206.999 73.1825 197.419 73.1825C187.84 73.1825 180.074 80.9473 180.074 90.5257C180.074 100.104 187.84 107.869 197.419 107.869Z" fill="url(#paint0_linear_63_302)"/>
<path d="M195.701 97.1416C195.31 97.1422 194.931 97.016 194.618 96.7819L194.599 96.7674L190.523 93.6495C190.142 93.357 189.893 92.9254 189.83 92.4494C189.767 91.9734 189.896 91.492 190.188 91.111C190.481 90.7299 190.912 90.4805 191.388 90.4174C191.864 90.3543 192.346 90.4828 192.727 90.7746L195.367 92.7991L201.606 84.6602C201.751 84.4715 201.932 84.3132 202.137 84.1942C202.343 84.0752 202.571 83.998 202.806 83.9668C203.042 83.9357 203.282 83.9513 203.511 84.0127C203.741 84.0742 203.956 84.1802 204.145 84.3249L204.107 84.3791L204.147 84.3253C204.527 84.6179 204.776 85.0495 204.839 85.5255C204.902 86.0015 204.773 86.483 204.482 86.8643L197.143 96.4331C196.973 96.6535 196.755 96.8319 196.505 96.9544C196.255 97.0769 195.98 97.1402 195.702 97.1394L195.701 97.1416Z" fill="white"/>
<path d="M199.205 182.086C208.785 182.086 216.55 174.321 216.55 164.743C216.55 155.164 208.785 147.399 199.205 147.399C189.626 147.399 181.86 155.164 181.86 164.743C181.86 174.321 189.626 182.086 199.205 182.086Z" fill="#CCCCCC"/>
<path d="M197.419 256.303C206.999 256.303 214.764 248.538 214.764 238.959C214.764 229.381 206.999 221.616 197.419 221.616C187.84 221.616 180.074 229.381 180.074 238.959C180.074 248.538 187.84 256.303 197.419 256.303Z" fill="#CCCCCC"/>
<path d="M419.392 37.4456H383.735C381.132 37.4456 378.635 36.4117 376.795 34.5712C374.954 32.7308 373.92 30.2346 373.92 27.6318V1.29892C373.92 1.18363 373.952 1.07067 374.014 0.973002C374.075 0.875335 374.163 0.796911 374.266 0.746722C374.37 0.696532 374.486 0.676609 374.601 0.689239C374.715 0.701869 374.824 0.74654 374.914 0.818129L419.773 36.3515C419.872 36.4305 419.945 36.5387 419.981 36.661C420.016 36.7833 420.013 36.9136 419.971 37.0339C419.929 37.1542 419.851 37.2584 419.747 37.3322C419.643 37.406 419.519 37.4456 419.392 37.4456Z" fill="#E6E6E6"/>
<path d="M178.019 380.178L41.7052 408.907C37.7659 409.733 33.6599 408.962 30.2881 406.765C26.9163 404.567 24.5539 401.122 23.7194 397.185L0.328134 286.223C-0.497572 282.284 0.273026 278.179 2.47087 274.807C4.66871 271.436 8.1143 269.074 12.0517 268.239L148.365 239.51C152.305 238.684 156.411 239.454 159.783 241.652C163.154 243.85 165.517 247.295 166.351 251.232L189.743 362.194C190.568 366.133 189.798 370.238 187.6 373.61C185.402 376.981 181.956 379.343 178.019 380.178Z" fill="white"/>
<path d="M178.019 380.178L41.7052 408.907C37.7659 409.733 33.6599 408.962 30.2881 406.765C26.9163 404.567 24.5539 401.122 23.7194 397.185L0.328134 286.223C-0.497572 282.284 0.273026 278.179 2.47087 274.807C4.66871 271.436 8.1143 269.074 12.0517 268.239L148.365 239.51C152.305 238.684 156.411 239.454 159.783 241.652C163.154 243.85 165.517 247.295 166.351 251.232L189.743 362.194C190.568 366.133 189.798 370.238 187.6 373.61C185.402 376.981 181.956 379.343 178.019 380.178ZM12.4201 269.987C8.94591 270.723 5.90569 272.807 3.96642 275.782C2.02715 278.757 1.3472 282.379 2.07573 285.855L25.467 396.817C26.2034 400.29 28.2878 403.33 31.2629 405.269C34.2381 407.208 37.861 407.888 41.3368 407.16L177.651 378.43C181.125 377.694 184.165 375.61 186.104 372.635C188.043 369.66 188.723 366.038 187.995 362.562L164.604 251.6C163.867 248.126 161.783 245.087 158.808 243.148C155.833 241.208 152.21 240.529 148.734 241.257L12.4201 269.987Z" fill="#3F3D56"/>
<path d="M139.896 276.097L71.1002 290.596C70.4982 290.736 69.8655 290.642 69.3302 290.333C68.7949 290.024 68.3968 289.524 68.2164 288.933C68.1339 288.624 68.1151 288.303 68.1611 287.987C68.2071 287.671 68.3169 287.368 68.484 287.096C68.651 286.824 68.8716 286.589 69.1325 286.405C69.3933 286.222 69.6889 286.093 70.0011 286.027L140.031 271.268C142.765 272.808 141.902 275.674 139.896 276.097Z" fill="#CCCCCC"/>
<path d="M142.44 288.163L73.6437 302.662C73.0417 302.802 72.4091 302.708 71.8738 302.399C71.3385 302.09 70.9404 301.59 70.76 300.999C70.6775 300.69 70.6586 300.369 70.7046 300.053C70.7506 299.737 70.8605 299.434 71.0275 299.162C71.1945 298.89 71.4152 298.655 71.676 298.471C71.9369 298.288 72.2325 298.159 72.5447 298.093L142.575 283.333C145.309 284.874 144.446 287.74 142.44 288.163Z" fill="#CCCCCC"/>
<path d="M60.2199 312.667L39.2241 317.092C38.5385 317.236 37.8237 317.102 37.2368 316.719C36.6499 316.336 36.2387 315.737 36.0935 315.051L30.871 290.277C30.7272 289.592 30.8613 288.877 31.2439 288.29C31.6264 287.703 32.2262 287.292 32.9116 287.147L53.9074 282.722C54.5931 282.578 55.3077 282.712 55.8946 283.095C56.4814 283.477 56.8926 284.077 57.038 284.762L62.2605 309.536C62.4043 310.222 62.2702 310.937 61.8877 311.524C61.5051 312.11 60.9053 312.522 60.2199 312.667Z" fill="#CCCCCC"/>
<path d="M147.447 312.91L42.4524 335.039C41.8504 335.179 41.2178 335.085 40.6825 334.776C40.1471 334.467 39.749 333.966 39.5686 333.375C39.4861 333.067 39.4673 332.745 39.5133 332.43C39.5593 332.114 39.6692 331.811 39.8362 331.539C40.0032 331.267 40.2238 331.032 40.4847 330.848C40.7455 330.664 41.0411 330.536 41.3534 330.47L147.583 308.081C150.318 309.621 149.453 312.487 147.447 312.91Z" fill="#CCCCCC"/>
<path d="M149.992 324.98L44.9967 347.108C44.3947 347.248 43.7621 347.154 43.2268 346.845C42.6915 346.536 42.2933 346.036 42.1129 345.445C42.0304 345.137 42.0116 344.815 42.0576 344.499C42.1036 344.183 42.2135 343.88 42.3805 343.608C42.5475 343.336 42.7682 343.101 43.029 342.918C43.2899 342.734 43.5854 342.605 43.8977 342.539L150.128 320.15C152.862 321.691 151.998 324.557 149.992 324.98Z" fill="#CCCCCC"/>
<path d="M152.534 337.041L47.5394 359.17C46.9373 359.31 46.3047 359.216 45.7694 358.907C45.2341 358.598 44.836 358.098 44.6556 357.507C44.5731 357.198 44.5543 356.876 44.6003 356.561C44.6463 356.245 44.7561 355.942 44.9231 355.67C45.0901 355.398 45.3108 355.163 45.5717 354.979C45.8325 354.795 46.1281 354.667 46.4404 354.601L152.67 332.212C155.405 333.753 154.54 336.619 152.534 337.041Z" fill="#CCCCCC"/>
<path d="M155.078 349.11L50.0835 371.239C49.4815 371.378 48.8488 371.284 48.3135 370.976C47.7782 370.667 47.3801 370.166 47.1997 369.575C47.1172 369.267 47.0984 368.945 47.1444 368.629C47.1904 368.314 47.3002 368.011 47.4672 367.739C47.6343 367.467 47.8549 367.232 48.1158 367.048C48.3766 366.864 48.6722 366.735 48.9845 366.67L155.214 344.28C157.949 345.821 157.084 348.687 155.078 349.11Z" fill="#CCCCCC"/>
<path d="M157.621 361.172L52.6263 383.301C52.0243 383.441 51.3917 383.347 50.8564 383.038C50.321 382.729 49.9229 382.229 49.7426 381.638C49.6601 381.329 49.6412 381.008 49.6872 380.692C49.7332 380.376 49.8431 380.073 50.0101 379.801C50.1771 379.529 50.3978 379.294 50.6586 379.11C50.9195 378.927 51.215 378.798 51.5273 378.732L157.757 356.343C160.492 357.884 159.627 360.75 157.621 361.172Z" fill="#CCCCCC"/>
<path d="M176.155 305.931C175.917 306.363 175.713 306.814 175.545 307.279L132.562 317.944L125.084 310.209L111.935 319.967L123.841 334.947C124.803 336.157 126.132 337.023 127.627 337.414C129.123 337.804 130.705 337.7 132.136 337.115L178.777 318.058C180.311 319.187 182.151 319.821 184.053 319.879C185.956 319.936 187.831 319.412 189.429 318.378C191.027 317.343 192.272 315.847 192.999 314.087C193.725 312.328 193.899 310.389 193.497 308.529C193.094 306.669 192.135 304.975 190.747 303.673C189.358 302.371 187.606 301.522 185.724 301.24C183.841 300.958 181.917 301.256 180.208 302.094C178.499 302.932 177.085 304.27 176.155 305.931Z" fill="#A0616A"/>
<path d="M29.4373 400.841C30.7773 400.427 32.0103 399.724 33.0494 398.782C34.0885 397.841 34.9085 396.682 35.4515 395.39C35.9945 394.097 36.2475 392.7 36.1924 391.299C36.1374 389.898 35.7758 388.526 35.1331 387.279L64.7132 305.071L44.1708 301.431L21.554 383.384C19.5314 384.602 18.0262 386.52 17.3234 388.774C16.6207 391.028 16.7692 393.461 17.7409 395.613C18.7127 397.765 20.44 399.486 22.5957 400.449C24.7514 401.412 27.1857 401.552 29.4373 400.841Z" fill="#A0616A"/>
<path d="M60.9565 319.664L40.674 311.881C40.097 311.659 39.5744 311.316 39.1419 310.874C38.7095 310.433 38.3773 309.903 38.168 309.321C37.9587 308.74 37.8772 308.12 37.9291 307.504C37.9809 306.888 38.1649 306.291 38.4686 305.753L49.1087 286.889C50.2589 283.944 52.5302 281.574 55.4247 280.301C58.3191 279.027 61.6006 278.953 64.5497 280.094C67.4988 281.236 69.8748 283.5 71.1569 286.391C72.439 289.281 72.5226 292.562 71.3892 295.514L66.696 316.585C66.5614 317.188 66.2984 317.755 65.9249 318.248C65.5514 318.74 65.0761 319.146 64.5314 319.438C63.9867 319.731 63.3854 319.902 62.7685 319.941C62.1516 319.98 61.5336 319.885 60.9565 319.664Z" fill="url(#paint1_linear_63_302)"/>
<path d="M106.737 555.183L117.685 555.182L122.893 512.958L106.735 512.959L106.737 555.183Z" fill="#A0616A"/>
<path d="M103.944 551.609L125.504 551.608H125.505C127.31 551.608 129.096 551.964 130.763 552.654C132.43 553.344 133.945 554.356 135.221 555.632C136.497 556.908 137.509 558.422 138.2 560.089C138.89 561.756 139.245 563.543 139.245 565.347V565.793L103.944 565.795L103.944 551.609Z" fill="#2F2E41"/>
<path d="M45.1192 555.183L56.0674 555.182L61.2754 512.958L45.1174 512.959L45.1192 555.183Z" fill="#A0616A"/>
<path d="M42.3263 551.609L63.8869 551.608H63.8878C65.6921 551.608 67.4789 551.964 69.1459 552.654C70.813 553.344 72.3277 554.356 73.6036 555.632C74.8795 556.908 75.8916 558.422 76.5821 560.089C77.2726 561.756 77.628 563.543 77.628 565.347V565.793L42.327 565.795L42.3263 551.609Z" fill="#2F2E41"/>
<path d="M56.5963 538.188H42.7416C42.1979 538.188 41.6598 538.078 41.1599 537.864C40.66 537.65 40.2088 537.337 39.8335 536.943C39.4583 536.55 39.1668 536.084 38.9767 535.575C38.7866 535.065 38.7019 534.522 38.7277 533.979L45.3086 392.603L45.7233 392.591L112.627 390.847L125.718 532.305C125.769 532.835 125.713 533.37 125.555 533.879C125.397 534.388 125.139 534.86 124.796 535.268C124.454 535.676 124.034 536.012 123.56 536.256C123.087 536.5 122.57 536.648 122.039 536.69L106.477 537.935C105.499 538.012 104.527 537.73 103.743 537.141C102.959 536.552 102.417 535.697 102.22 534.736L82.3143 434.037C82.26 433.731 82.0978 433.454 81.857 433.258C81.6163 433.061 81.3131 432.958 81.0025 432.966H80.997C80.6853 432.959 80.3815 433.064 80.1411 433.263C79.9007 433.461 79.7397 433.74 79.6876 434.047L60.5392 534.946C60.3579 535.859 59.866 536.681 59.1472 537.272C58.4283 537.863 57.527 538.187 56.5963 538.188Z" fill="#2F2E41"/>
<path d="M81.9753 266.512C94.0887 266.512 103.908 256.694 103.908 244.582C103.908 232.47 94.0887 222.651 81.9753 222.651C69.862 222.651 60.0422 232.47 60.0422 244.582C60.0422 256.694 69.862 266.512 81.9753 266.512Z" fill="#A0616A"/>
<path d="M74.6209 409.17C64.1671 409.17 53.4296 406.423 44.5283 398.299C44.0546 397.87 43.689 397.335 43.4609 396.737C43.2329 396.14 43.149 395.498 43.2161 394.862C44.1688 386.302 48.7904 342.108 46.1877 312.586C45.6798 307.071 46.4605 301.514 48.4683 296.354C50.4762 291.193 53.6561 286.569 57.7571 282.847C61.7863 279.134 66.6234 276.408 71.8867 274.884C77.15 273.361 82.6955 273.081 88.0855 274.067C88.3587 274.115 88.6319 274.167 88.9053 274.219C106.465 277.617 118.666 293.867 117.285 312.017C115.271 338.501 113.465 374.324 116.3 394.583C116.418 395.412 116.273 396.256 115.886 396.999C115.5 397.741 114.89 398.344 114.144 398.723C107.692 401.982 91.5274 409.17 74.6209 409.17Z" fill="url(#paint2_linear_63_302)"/>
<path d="M103.241 321.242C102.726 320.9 102.292 320.45 101.967 319.925C101.641 319.399 101.434 318.809 101.357 318.196L98.6851 296.775C97.8369 293.729 98.2313 290.47 99.7819 287.714C101.333 284.958 103.913 282.93 106.957 282.073C110.001 281.216 113.261 281.602 116.022 283.144C118.782 284.687 120.818 287.262 121.684 290.303L130.485 310.091C130.737 310.656 130.863 311.268 130.856 311.886C130.849 312.504 130.709 313.114 130.446 313.673C130.182 314.232 129.801 314.727 129.329 315.126C128.857 315.525 128.304 315.817 127.708 315.982L106.779 321.806C106.183 321.972 105.559 322.007 104.948 321.91C104.338 321.813 103.755 321.585 103.241 321.242Z" fill="url(#paint3_linear_63_302)"/>
<path d="M74.3186 266.203C72.2426 266.241 70.1795 265.868 68.2486 265.105C67.399 264.777 66.5171 264.508 65.6691 264.181C58.1798 261.287 53.2463 253.312 53.0696 245.286C52.8929 237.26 57.0497 229.47 63.2223 224.336C69.3949 219.202 77.3898 216.567 85.3955 215.957C94.0189 215.301 103.729 217.487 108.548 224.668C109.83 226.58 110.728 228.899 109.967 231.206C109.74 231.903 109.333 232.527 108.788 233.017C106.637 234.932 104.491 233.492 102.297 233.365C99.2821 233.19 96.5739 235.631 95.6005 238.49C94.6271 241.348 95.0556 244.496 95.8415 247.412C96.4403 249.166 96.8178 250.989 96.9652 252.837C97.0286 253.764 96.8543 254.691 96.4588 255.532C96.0632 256.372 95.4596 257.098 94.705 257.64C92.8209 258.778 90.3465 258.119 88.4612 256.982C86.5759 255.845 84.9469 254.265 82.9104 253.428C80.874 252.591 78.1381 252.777 76.9528 254.632C76.5761 255.307 76.3211 256.043 76.1996 256.806C75.137 261.647 75.3812 261.362 74.3186 266.203Z" fill="#2F2E41"/>
<path d="M171.161 567H1.48939C1.25255 567 1.02541 566.906 0.857941 566.738C0.69047 566.571 0.596386 566.344 0.596386 566.107C0.596386 565.87 0.69047 565.643 0.857941 565.476C1.02541 565.308 1.25255 565.214 1.48939 565.214H171.161C171.397 565.214 171.625 565.308 171.792 565.476C171.96 565.643 172.054 565.87 172.054 566.107C172.054 566.344 171.96 566.571 171.792 566.738C171.625 566.906 171.397 567 171.161 567Z" fill="#CCCCCC"/>
<path d="M605.469 382.729L483.969 450.874C480.456 452.839 476.308 453.33 472.433 452.24C468.559 451.151 465.275 448.569 463.302 445.061L407.819 346.157C405.854 342.645 405.362 338.497 406.452 334.623C407.542 330.749 410.125 327.465 413.633 325.492L535.133 257.348C538.646 255.383 542.794 254.891 546.669 255.981C550.543 257.071 553.827 259.653 555.8 263.161L611.283 362.064C613.248 365.576 613.739 369.724 612.65 373.598C611.56 377.473 608.977 380.756 605.469 382.729Z" fill="white"/>
<path d="M605.469 382.729L483.969 450.874C480.456 452.839 476.308 453.33 472.433 452.24C468.559 451.151 465.275 448.569 463.302 445.061L407.819 346.157C405.854 342.645 405.362 338.497 406.452 334.623C407.542 330.749 410.125 327.465 413.633 325.492L535.133 257.348C538.646 255.383 542.794 254.891 546.669 255.981C550.543 257.071 553.827 259.653 555.8 263.161L611.283 362.064C613.248 365.576 613.739 369.724 612.65 373.598C611.56 377.473 608.977 380.756 605.469 382.729ZM414.506 327.05C411.411 328.791 409.133 331.688 408.171 335.106C407.209 338.525 407.643 342.185 409.377 345.284L464.859 444.187C466.6 447.282 469.498 449.56 472.917 450.522C476.335 451.484 479.996 451.05 483.095 449.316L604.595 381.171C607.691 379.431 609.969 376.533 610.931 373.115C611.893 369.697 611.459 366.037 609.725 362.938L554.242 264.034C552.502 260.939 549.604 258.661 546.185 257.699C542.767 256.738 539.106 257.171 536.007 258.905L414.506 327.05Z" fill="#3F3D56"/>
<path d="M537.984 294.794L476.665 329.185C476.132 329.499 475.5 329.598 474.897 329.463C474.294 329.328 473.764 328.97 473.415 328.46C473.245 328.19 473.131 327.889 473.08 327.573C473.03 327.258 473.044 326.936 473.122 326.627C473.2 326.318 473.34 326.027 473.534 325.774C473.728 325.521 473.972 325.309 474.25 325.153L536.67 290.145C539.74 290.798 539.772 293.791 537.984 294.794Z" fill="#CCCCCC"/>
<path d="M544.017 305.548L482.698 339.94C482.165 340.253 481.533 340.353 480.93 340.218C480.327 340.083 479.797 339.724 479.449 339.214C479.278 338.945 479.164 338.643 479.113 338.328C479.063 338.013 479.077 337.691 479.155 337.382C479.233 337.072 479.374 336.782 479.568 336.529C479.762 336.275 480.005 336.064 480.283 335.908L542.703 300.899C545.773 301.553 545.805 304.546 544.017 305.548Z" fill="#CCCCCC"/>
<path d="M472.877 353.498L454.163 363.994C453.552 364.337 452.829 364.422 452.155 364.232C451.481 364.043 450.909 363.593 450.566 362.983L438.178 340.901C437.836 340.289 437.75 339.567 437.94 338.893C438.13 338.219 438.579 337.647 439.19 337.304L457.904 326.808C458.516 326.466 459.238 326.38 459.912 326.57C460.586 326.76 461.158 327.209 461.501 327.82L473.889 349.901C474.231 350.513 474.317 351.235 474.127 351.909C473.937 352.584 473.488 353.155 472.877 353.498Z" fill="#CCCCCC"/>
<path d="M556.192 327.669L462.607 380.157C462.074 380.47 461.442 380.569 460.839 380.435C460.236 380.3 459.707 379.941 459.358 379.431C459.187 379.162 459.073 378.86 459.022 378.545C458.972 378.23 458.986 377.908 459.064 377.599C459.143 377.289 459.283 376.999 459.477 376.746C459.671 376.492 459.914 376.281 460.193 376.125L554.878 323.019C557.948 323.673 557.98 326.666 556.192 327.669Z" fill="#CCCCCC"/>
<path d="M562.227 338.427L468.642 390.915C468.109 391.228 467.477 391.327 466.874 391.193C466.271 391.058 465.742 390.699 465.393 390.189C465.222 389.92 465.108 389.618 465.057 389.303C465.007 388.988 465.021 388.666 465.099 388.357C465.177 388.047 465.318 387.757 465.512 387.504C465.706 387.25 465.949 387.039 466.228 386.883L560.913 333.777C563.983 334.431 564.015 337.424 562.227 338.427Z" fill="#CCCCCC"/>
<path d="M568.258 349.178L474.673 401.666C474.14 401.979 473.508 402.078 472.905 401.944C472.302 401.809 471.773 401.45 471.424 400.94C471.253 400.67 471.139 400.369 471.088 400.054C471.038 399.739 471.052 399.417 471.13 399.107C471.208 398.798 471.349 398.508 471.543 398.254C471.737 398.001 471.98 397.79 472.259 397.634L566.944 344.528C570.014 345.182 570.046 348.175 568.258 349.178Z" fill="#CCCCCC"/>
<path d="M574.292 359.935L480.708 412.423C480.175 412.736 479.543 412.835 478.94 412.701C478.337 412.566 477.807 412.207 477.458 411.697C477.288 411.428 477.173 411.126 477.123 410.811C477.072 410.496 477.087 410.174 477.165 409.864C477.243 409.555 477.383 409.265 477.577 409.012C477.771 408.758 478.015 408.547 478.293 408.391L572.979 355.285C576.049 355.939 576.08 358.932 574.292 359.935Z" fill="#CCCCCC"/>
<path d="M580.324 370.686L486.739 423.175C486.206 423.488 485.574 423.587 484.971 423.452C484.368 423.318 483.839 422.959 483.49 422.449C483.319 422.179 483.205 421.878 483.154 421.563C483.104 421.248 483.118 420.925 483.196 420.616C483.274 420.307 483.415 420.016 483.609 419.763C483.803 419.51 484.046 419.299 484.325 419.143L579.01 366.037C582.08 366.69 582.112 369.684 580.324 370.686Z" fill="#CCCCCC"/>
<path d="M563.997 410.977C564.507 409.853 564.764 408.631 564.75 407.397C564.736 406.163 564.452 404.947 563.917 403.835C563.382 402.723 562.61 401.741 561.655 400.96C560.7 400.178 559.585 399.615 558.389 399.311L555.844 369.422L543.604 379.076L547.897 405.98C547.519 408.023 547.904 410.134 548.979 411.912C550.053 413.691 551.743 415.013 553.727 415.629C555.712 416.245 557.853 416.112 559.746 415.254C561.639 414.397 563.151 412.875 563.997 410.977Z" fill="#FFB8B8"/>
<path d="M556.075 396.181L545.91 397.393C545.393 397.455 544.87 397.409 544.372 397.259C543.874 397.108 543.412 396.857 543.016 396.52C542.62 396.184 542.297 395.769 542.069 395.301C541.84 394.834 541.711 394.325 541.688 393.805L540.206 359.515L520.937 306.882C520.165 305.249 519.813 303.449 519.913 301.645C520.013 299.841 520.562 298.091 521.51 296.553C521.982 295.81 522.523 295.113 523.124 294.47C524.31 293.193 525.787 292.222 527.43 291.639C529.072 291.056 530.831 290.878 532.556 291.121C534.334 291.358 536.03 292.015 537.503 293.038C538.976 294.062 540.183 295.421 541.025 297.005L553.591 323.334C558.847 334.347 561.329 346.478 560.819 358.669L559.402 392.589C559.365 393.477 559.016 394.323 558.417 394.979C557.817 395.634 557.006 396.058 556.125 396.174L556.075 396.181Z" fill="url(#paint4_linear_63_302)"/>
<path d="M592.176 544.377L582.751 548.513L562.31 514.133L576.22 508.028L592.176 544.377Z" fill="#FFB8B8"/>
<path d="M598.59 552.457L568.201 565.795L568.032 565.41C567.35 563.857 566.981 562.185 566.945 560.489C566.91 558.793 567.209 557.107 567.825 555.527C568.441 553.946 569.363 552.503 570.537 551.279C571.711 550.055 573.115 549.074 574.668 548.392L593.229 540.245L598.59 552.457Z" fill="#2F2E41"/>
<path d="M465.647 555.818H455.354L450.457 516.122L465.648 516.123L465.647 555.818Z" fill="#FFB8B8"/>
<path d="M468.271 565.795L435.083 565.793V565.374C435.083 563.677 435.418 561.998 436.067 560.431C436.716 558.864 437.667 557.44 438.867 556.241C440.066 555.041 441.491 554.09 443.058 553.441C444.625 552.792 446.305 552.458 448.001 552.458L468.272 552.458L468.271 565.795Z" fill="#2F2E41"/>
<path d="M565.856 542.248L508.519 414.308C508.415 414.069 508.24 413.867 508.017 413.731C507.794 413.595 507.534 413.532 507.273 413.551C507.013 413.569 506.764 413.668 506.562 413.834C506.361 414 506.215 414.224 506.147 414.476L471.212 538.05C470.981 538.915 470.45 539.67 469.712 540.177C468.975 540.685 468.081 540.912 467.19 540.819L448.111 538.911C447.128 538.808 446.224 538.326 445.59 537.567C444.957 536.808 444.645 535.832 444.719 534.847C450.788 459.374 460.354 388.143 489.013 341.513L489.166 341.265L532.516 349.765L590.39 534.038C590.676 534.987 590.579 536.011 590.119 536.889C589.66 537.768 588.875 538.432 587.933 538.739L570.481 544.348C569.587 544.639 568.616 544.584 567.76 544.196C566.904 543.807 566.225 543.112 565.856 542.248Z" fill="#2F2E41"/>
<path d="M510.118 275.976C521.507 275.976 530.739 266.745 530.739 255.358C530.739 243.971 521.507 234.74 510.118 234.74C498.73 234.74 489.498 243.971 489.498 255.358C489.498 266.745 498.73 275.976 510.118 275.976Z" fill="#FFB8B8"/>
<path d="M486.349 345.083L486.086 345.029L486.024 344.768C483.246 333.039 483.18 320.239 485.827 306.725C487.17 299.818 490.908 293.606 496.381 289.184C501.855 284.761 508.714 282.412 515.75 282.55C523.384 282.705 530.671 285.771 536.119 291.12C541.567 296.47 544.764 303.7 545.057 311.329C545.941 334.573 536.441 354.725 536.345 354.926L536.203 355.221L486.349 345.083Z" fill="url(#paint5_linear_63_302)"/>
<path d="M431.072 384.307C432.293 384.127 433.46 383.681 434.49 383.001C435.52 382.321 436.388 381.423 437.034 380.372C437.679 379.32 438.086 378.139 438.226 376.913C438.366 375.687 438.235 374.445 437.843 373.275L461.593 354.947L446.847 349.888L426.554 368.068C424.632 368.857 423.066 370.324 422.152 372.19C421.239 374.056 421.043 376.193 421.6 378.194C422.156 380.196 423.428 381.924 425.174 383.051C426.92 384.177 429.019 384.624 431.072 384.307Z" fill="#FFB8B8"/>
<path d="M444.045 370.485C443.271 370.942 442.36 371.108 441.476 370.952C440.591 370.796 439.791 370.328 439.221 369.635L432.697 361.747C432.365 361.346 432.12 360.881 431.977 360.381C431.833 359.881 431.794 359.357 431.863 358.842C431.932 358.326 432.106 357.83 432.375 357.385C432.644 356.94 433.002 356.555 433.427 356.255L461.452 336.438L495.266 291.734C496.221 290.201 497.544 288.93 499.114 288.037C500.685 287.144 502.454 286.658 504.26 286.622C505.141 286.616 506.019 286.693 506.885 286.851C508.601 287.156 510.218 287.871 511.598 288.936C512.977 290.001 514.079 291.383 514.809 292.965C515.573 294.588 515.939 296.369 515.876 298.161C515.814 299.953 515.324 301.705 514.449 303.27L489.411 343.814L489.356 343.903L444.045 370.485Z" fill="url(#paint6_linear_63_302)"/>
<path d="M513.806 254.079C512.286 251.579 508.932 250.873 506.021 251.158C503.109 251.443 500.277 252.467 497.352 252.444C489.228 252.381 482.958 242.481 486.373 235.111C489.174 229.067 496.17 226.413 502.498 224.329C515.766 219.962 531.007 215.766 543.048 222.847C546.884 225.171 550.031 228.476 552.163 232.423C554.295 236.369 555.335 240.813 555.175 245.295C554.904 250.868 552.769 256.593 554.575 261.873C556.657 267.964 563.261 271.232 569.502 272.813C580.442 275.584 591.976 275.138 602.984 277.623C613.992 280.109 625.273 286.708 628.24 297.596C630.189 304.747 628.155 312.445 624.787 319.048C621.351 325.784 616.576 331.748 610.754 336.575C604.931 341.401 598.185 344.989 590.928 347.117C583.671 349.245 576.056 349.87 568.549 348.953C561.042 348.036 553.801 345.596 547.27 341.782C533.962 334.012 524.354 320.88 518.626 306.575C515.378 298.23 513.091 289.543 511.811 280.681C510.528 272.385 511.616 264.002 513.94 255.935C514.05 255.634 514.095 255.313 514.072 254.993C514.048 254.673 513.958 254.361 513.806 254.079Z" fill="#2F2E41"/>
<path d="M588.195 567H418.523C418.287 567 418.059 566.906 417.892 566.738C417.724 566.571 417.63 566.344 417.63 566.107C417.63 565.87 417.724 565.643 417.892 565.476C418.059 565.308 418.287 565.214 418.523 565.214H588.195C588.431 565.214 588.659 565.308 588.826 565.476C588.993 565.643 589.088 565.87 589.088 566.107C589.088 566.344 588.993 566.571 588.826 566.738C588.659 566.906 588.431 567 588.195 567Z" fill="#CCCCCC"/>
</g>
<defs>
<linearGradient id="paint0_linear_63_302" x1="197.419" y1="73.1825" x2="197.419" y2="107.869" gradientUnits="userSpaceOnUse">
<stop stop-color="#8B54FF"/>
<stop offset="1" stop-color="#533299"/>
</linearGradient>
<linearGradient id="paint1_linear_63_302" x1="55.0483" y1="279.289" x2="55.0483" y2="319.95" gradientUnits="userSpaceOnUse">
<stop stop-color="#8B54FF"/>
<stop offset="1" stop-color="#533299"/>
</linearGradient>
<linearGradient id="paint2_linear_63_302" x1="80.2925" y1="273.489" x2="80.2925" y2="409.17" gradientUnits="userSpaceOnUse">
<stop stop-color="#8B54FF"/>
<stop offset="1" stop-color="#533299"/>
</linearGradient>
<linearGradient id="paint3_linear_63_302" x1="114.552" y1="281.626" x2="114.552" y2="321.964" gradientUnits="userSpaceOnUse">
<stop stop-color="#8B54FF"/>
<stop offset="1" stop-color="#533299"/>
</linearGradient>
<linearGradient id="paint4_linear_63_302" x1="540.39" y1="291.015" x2="540.39" y2="397.42" gradientUnits="userSpaceOnUse">
<stop stop-color="#8B54FF"/>
<stop offset="1" stop-color="#533299"/>
</linearGradient>
<linearGradient id="paint5_linear_63_302" x1="514.502" y1="282.544" x2="514.502" y2="355.221" gradientUnits="userSpaceOnUse">
<stop stop-color="#8B54FF"/>
<stop offset="1" stop-color="#533299"/>
</linearGradient>
<linearGradient id="paint6_linear_63_302" x1="473.857" y1="286.622" x2="473.857" y2="371.009" gradientUnits="userSpaceOnUse">
<stop stop-color="#8B54FF"/>
<stop offset="1" stop-color="#533299"/>
</linearGradient>
<clipPath id="clip0_63_302">
<rect width="629" height="567" fill="white"/>
</clipPath>
</defs>
</svg>
